<mxfile host="app.diagrams.net" modified="2023-11-13T08:50:27.030Z" agent="Mozilla/5.0 (Macintosh; Intel Mac OS X 10_15_7) AppleWebKit/537.36 (KHTML, like Gecko) Chrome/119.0.0.0 Safari/537.36" version="21.7.1" etag="I9WM6ogFCNs85ekLJNWM" type="github">
  <diagram name="Page-1" id="c5QgVMspqm9LT6cAl0Aw">
    <mxGraphModel>
      <root>
        <mxCell id="0" />
        <mxCell id="1" parent="0" />
      </root>
    </mxGraphModel>
  </diagram>
</mxfile>
